# Blender v2.77 (sub 0) OBJ File: ''
# www.blender.org
v -0.005499 -0.005499 0.005499
v -0.005499 0.005499 0.005499
v -0.005499 -0.005499 -0.005499
v -0.005499 0.005499 -0.005499
v 0.005499 -0.005499 0.005499
v 0.005499 0.005499 0.005499
v 0.005499 -0.005499 -0.005499
v 0.005499 0.005499 -0.005499
vt 0.0000 0.0000
vt 1.0000 0.0000
vt 1.0000 1.0000
vt 0.0000 0.0000
vt 1.0000 0.0000
vt 1.0000 1.0000
vt 0.0000 0.0000
vt 1.0000 0.0000
vt 1.0000 1.0000
vt 0.0000 0.0000
vt 1.0000 0.0000
vt 1.0000 1.0000
vt 0.0000 0.0000
vt 1.0000 1.0000
vt 1.0000 0.0000
vt 1.0000 1.0000
vt 1.0000 1.0000
vt 1.0000 1.0000
vt 1.0000 0.0000
vn -1.0000 0.0000 0.0000
vn 0.0000 0.0000 -1.0000
vn 1.0000 0.0000 0.0000
vn 0.0000 0.0000 1.0000
vn 0.0000 -1.0000 0.0000
vn 0.0000 1.0000 0.0000
s off
f 4/1/1 1/2/1 2/3/1
f 8/4/2 3/5/2 4/6/2
f 6/7/3 7/8/3 8/9/3
f 2/10/4 5/11/4 6/12/4
f 3/13/5 5/11/5 1/14/5
f 8/4/6 2/15/6 6/12/6
f 4/1/1 3/5/1 1/14/1
f 8/4/2 7/8/2 3/16/2
f 6/7/3 5/11/3 7/17/3
f 2/10/4 1/2/4 5/18/4
f 3/13/5 7/8/5 5/18/5
f 8/4/6 4/19/6 2/3/6
