# Blender v2.77 (sub 0) OBJ File: 'platform.blend'
# www.blender.org
v 1.000000 -0.867719 0.926094
v 1.000000 1.000000 0.987724
v 1.499981 1.000010 0.878223
v 1.476331 -0.592650 0.839869
v 1.871930 0.999981 0.686671
v 1.970398 0.321242 0.864505
v 1.000000 0.706530 1.120197
v 1.499981 0.706530 1.072533
v 1.999987 0.706530 0.838165
v 0.000000 1.000000 1.057559
v 0.000000 -1.000000 1.000000
v 0.000000 0.706530 1.214895
v 1.000000 -0.867719 -0.926094
v 1.000000 1.000000 -0.987724
v 1.499981 1.000010 -0.878223
v 1.476331 -0.592650 -0.839869
v 1.871930 0.999981 -0.686671
v 1.970398 0.321242 -0.864505
v 1.000000 0.706530 -1.120197
v 1.499981 0.706530 -1.072533
v 1.999987 0.706530 -0.838165
v 1.000000 1.000000 0.000000
v 1.000000 -1.000000 0.000000
v 1.499981 1.000010 0.000000
v 1.499981 -0.616300 0.000000
v 1.999987 0.999981 0.000000
v 2.132706 0.321242 0.000000
v 2.162452 0.706530 0.000000
v 0.000000 1.000000 -1.057559
v 0.000000 -1.000000 -1.000000
v 0.000000 0.706530 -1.214895
v 0.000000 1.000000 0.000000
v 0.000000 -1.147129 0.000000
vt 0.5367 0.6863
vt 0.6654 0.7049
vt 0.6149 0.7613
vt 0.3148 0.9441
vt 0.4987 0.7536
vt 0.4648 0.9756
vt 0.4465 0.6128
vt 0.7412 0.5040
vt 0.8112 0.8666
vt 0.7180 0.9355
vt 0.5674 0.8093
vt 0.6238 0.9686
vt 0.2301 0.4343
vt 0.7216 0.3754
vt 0.1715 0.5150
vt 0.3992 0.6815
vt 0.0221 0.8187
vt 0.9612 0.5576
vt 0.9332 0.0475
vt 0.6224 0.1217
vt 0.9833 0.3613
vt 0.5367 0.6863
vt 0.6654 0.7049
vt 0.7412 0.5040
vt 0.4987 0.7536
vt 0.3992 0.6815
vt 0.4465 0.6128
vt 0.7216 0.3754
vt 0.6149 0.7613
vt 0.5674 0.8093
vt 0.2301 0.4343
vt 0.1715 0.5150
vt 0.6224 0.1217
vn 0.2451 0.1910 0.9505
vn 0.7541 -0.2456 0.6091
vn 0.7691 0.2530 0.5869
vn 0.0000 1.0000 0.0000
vn 0.1740 0.8597 0.4802
vn 0.0976 0.1426 0.9849
vn 0.6220 -0.5399 0.5671
vn 0.9479 -0.3185 0.0000
vn 0.9789 0.2040 0.0000
vn 0.4701 0.8227 0.3197
vn 0.5494 0.8356 0.0000
vn 0.0920 0.1792 0.9795
vn 0.3010 -0.6817 0.6668
vn 0.0480 0.8435 0.5349
vn 0.0574 0.8368 0.5444
vn 0.7463 -0.6656 0.0000
vn 0.1435 -0.9896 0.0000
vn 0.1444 -0.7029 0.6964
vn 0.3636 -0.9315 0.0000
vn 0.2451 0.1910 -0.9505
vn 0.7541 -0.2456 -0.6091
vn 0.6220 -0.5399 -0.5671
vn 0.1740 0.8597 -0.4802
vn 0.0574 0.8368 -0.5444
vn 0.0976 0.1426 -0.9849
vn 0.3010 -0.6817 -0.6668
vn 0.7691 0.2530 -0.5869
vn 0.4701 0.8227 -0.3197
vn 0.0920 0.1792 -0.9795
vn 0.0480 0.8435 -0.5349
vn 0.1444 -0.7029 -0.6964
s 1
f 8/1/1 6/2/2 9/3/3
f 22/4/4 3/5/5 24/6/4
f 7/7/6 4/8/7 8/1/1
f 9/3/3 27/9/8 28/10/9
f 24/6/4 5/11/10 26/12/11
f 12/13/12 1/14/13 7/7/6
f 10/15/14 7/7/6 2/16/15
f 5/11/10 28/10/9 26/12/11
f 2/16/15 8/1/1 3/5/5
f 3/5/5 9/3/3 5/11/10
f 2/16/15 32/17/4 10/15/14
f 25/18/16 6/2/2 4/8/7
f 33/19/17 1/14/13 11/20/18
f 23/21/19 4/8/7 1/14/13
f 20/22/20 18/23/21 16/24/22
f 22/4/4 15/25/23 14/26/24
f 19/27/25 16/24/22 13/28/26
f 27/9/8 21/29/27 28/10/9
f 24/6/4 17/30/28 15/25/23
f 13/28/26 31/31/29 19/27/25
f 19/27/25 29/32/30 14/26/24
f 28/10/9 17/30/28 26/12/11
f 14/26/24 20/22/20 19/27/25
f 15/25/23 21/29/27 20/22/20
f 14/26/24 32/17/4 22/4/4
f 18/23/21 25/18/16 16/24/22
f 13/28/26 33/19/17 30/33/31
f 16/24/22 23/21/19 13/28/26
f 8/1/1 4/8/7 6/2/2
f 22/4/4 2/16/15 3/5/5
f 7/7/6 1/14/13 4/8/7
f 9/3/3 6/2/2 27/9/8
f 24/6/4 3/5/5 5/11/10
f 12/13/12 11/20/18 1/14/13
f 10/15/14 12/13/12 7/7/6
f 5/11/10 9/3/3 28/10/9
f 2/16/15 7/7/6 8/1/1
f 3/5/5 8/1/1 9/3/3
f 2/16/15 22/4/4 32/17/4
f 25/18/16 27/9/8 6/2/2
f 33/19/17 23/21/19 1/14/13
f 23/21/19 25/18/16 4/8/7
f 20/22/20 21/29/27 18/23/21
f 22/4/4 24/6/4 15/25/23
f 19/27/25 20/22/20 16/24/22
f 27/9/8 18/23/21 21/29/27
f 24/6/4 26/12/11 17/30/28
f 13/28/26 30/33/31 31/31/29
f 19/27/25 31/31/29 29/32/30
f 28/10/9 21/29/27 17/30/28
f 14/26/24 15/25/23 20/22/20
f 15/25/23 17/30/28 21/29/27
f 14/26/24 29/32/30 32/17/4
f 18/23/21 27/9/8 25/18/16
f 13/28/26 23/21/19 33/19/17
f 16/24/22 25/18/16 23/21/19
